<svg width="220" height="65" viewBox="0 0 220 65" fill="none" xmlns="http://www.w3.org/2000/svg">
<path d="M26.9096 16.0362C26.9096 18.767 24.4414 20.9807 21.3967 20.9807C18.352 20.9807 15.8838 18.767 15.8838 16.0362C15.8838 13.3055 18.352 11.0918 21.3967 11.0918C24.4414 11.0918 26.9096 13.3055 26.9096 16.0362Z" fill="#F4F4F4"/>
<path d="M17.1336 31.2004C-1.56622 44.0163 4.1966 26.7833 9.41549 16.5648C6.76926 30.4884 18.6527 26.7614 24.9252 23.1574L53.8863 9.11523C50.7991 15.532 43.2574 27.5613 37.7886 24.3441C32.3198 21.1269 30.1441 30.8707 34.5544 34.7604C39.9938 39.1774 31.9817 56.2302 26.8363 64.5588C29.6001 59.3375 27.9879 48.6707 26.8363 43.99C27.7184 57.7025 9.31752 59.065 0.00683594 58.0321C9.76836 57.7684 17.5501 47.7257 20.2208 42.7374C28.8651 25.2802 21.7644 27.7722 17.1336 31.2004Z" fill="#F4F4F4"/>
<path fill-rule="evenodd" clip-rule="evenodd" d="M54 9.00195L53.937 9.133C52.3924 12.3434 49.733 16.9591 46.7741 20.3709C45.295 22.0764 43.7378 23.485 42.2041 24.2654C40.6684 25.0468 39.1484 25.2014 37.7583 24.3836C36.4046 23.5873 35.2672 23.5984 34.3857 24.1072C33.4986 24.6192 32.857 25.6428 32.5205 26.8969C31.8473 29.4053 32.4056 32.7933 34.5922 34.7225C35.9698 35.8417 36.4886 37.7542 36.4219 40.108C36.3551 42.4643 35.7012 45.275 34.7175 48.2051C32.7498 54.0658 29.4586 60.4144 26.8846 64.5809L26.7864 64.5357C28.162 61.9369 28.4509 57.9756 28.2494 54.0721C28.0636 50.4724 27.4614 46.9299 26.9175 44.5671C26.9972 47.727 26.0244 50.2095 24.3694 52.1426C22.6148 54.1919 20.0966 55.6201 17.2634 56.585C11.5982 58.5145 4.66035 58.5964 0 58.0794L0.00511426 57.9808C4.86527 57.8495 9.23837 55.2832 12.7336 52.1198C16.2278 48.9574 18.8374 45.2048 20.1707 42.7147C22.3309 38.352 23.5059 35.2387 23.9822 33.0764C24.2204 31.9952 24.2834 31.1542 24.2088 30.5148C24.1342 29.8753 23.9226 29.442 23.6165 29.1702C23.3112 28.8992 22.9049 28.7825 22.4255 28.7889C21.9449 28.7953 21.3939 28.9255 20.8064 29.1457C19.6317 29.586 18.3244 30.3811 17.1686 31.2367L17.1678 31.2373L17.167 31.2378C14.828 32.8409 12.8698 33.9753 11.2438 34.7125C9.61865 35.4494 8.32145 35.7913 7.3055 35.8049C6.28668 35.8186 5.54971 35.5019 5.05396 34.9243C4.56054 34.3493 4.31122 33.5218 4.24984 32.5214C4.12708 30.5204 4.75489 27.8018 5.73726 24.9484C6.72011 22.0935 8.05978 19.0984 9.36524 16.5424L9.46985 16.5713C8.80906 20.0482 9.05747 22.4136 9.89004 23.9523C10.7204 25.4869 12.1356 26.2054 13.8322 26.3829C15.532 26.5607 17.5133 26.1948 19.4645 25.5574C21.4148 24.9202 23.3299 24.0133 24.8953 23.1139L24.8971 23.1129L54 9.00195ZM24.9532 23.1982C23.3827 24.1005 21.4609 25.0105 19.5023 25.6504C17.5439 26.2902 15.5437 26.6616 13.8194 26.4813C12.0918 26.3005 10.6402 25.5654 9.79071 23.9955C8.97349 22.4852 8.71685 20.2085 9.2938 16.9222C8.04492 19.399 6.78082 22.2528 5.84275 24.9776C4.86115 27.8288 4.23845 30.5334 4.36009 32.5159C4.42091 33.5073 4.66753 34.3117 5.14145 34.8639C5.61305 35.4134 6.31483 35.7192 7.30385 35.7059C8.29575 35.6926 9.5755 35.358 11.194 34.6242C12.8116 33.8907 14.7636 32.7603 17.0992 31.1597C18.2587 30.3014 19.5752 29.4998 20.7639 29.0543C21.3582 28.8316 21.9239 28.6966 22.4238 28.6899C22.9248 28.6832 23.3627 28.8055 23.6942 29.0998C24.0247 29.3933 24.2425 29.8517 24.3186 30.5045C24.3948 31.1574 24.3299 32.0091 24.0906 33.0956C23.6118 35.2687 22.4329 38.3901 20.2712 42.7556L20.2709 42.7563L20.2705 42.7569C18.933 45.2552 16.3165 49.0178 12.812 52.1895C9.46452 55.2192 5.30014 57.7156 0.6608 58.0476C5.28958 58.4857 11.8381 58.3268 17.2242 56.4924C20.0448 55.5318 22.5433 54.1128 24.2818 52.0823C26.0195 50.0526 27.001 47.4083 26.7812 43.991L26.8902 43.9774C27.4665 46.3201 28.158 50.1598 28.3597 54.0675C28.5403 57.5665 28.3287 61.1277 27.2843 63.7171C29.7702 59.5699 32.7713 53.6583 34.6117 48.1766C35.5942 45.2503 36.2451 42.4491 36.3115 40.1055C36.378 37.7597 35.8588 35.8846 34.5173 34.7952L34.5164 34.7945L34.5156 34.7938C32.2926 32.8332 31.7338 29.405 32.4131 26.8737C32.7528 25.6078 33.4049 24.5556 34.326 24.0239C35.2528 23.489 36.4381 23.4886 37.8189 24.3008C39.1632 25.0917 40.6366 24.9491 42.1496 24.1793C43.6645 23.4085 45.2111 22.0119 46.6869 20.3101C49.5979 16.9536 52.2209 12.4249 53.7722 9.22497L24.9532 23.1982Z" fill="#F4F4F4"/>
<path d="M49.4025 3.55999C49.4025 5.52612 47.6253 7.11998 45.4332 7.11998C43.241 7.11998 41.4639 5.52612 41.4639 3.55999C41.4639 1.59386 43.241 0 45.4332 0C47.6253 0 49.4025 1.59386 49.4025 3.55999Z" fill="#F4F4F4"/>
<path d="M67.04 21.5207H71.52L81.28 48.7207H75.4L73.6 43.1607H63.08L61.28 48.7207H55.32L64.4 23.3207C64.8 22.1207 65.68 21.5207 67.04 21.5207ZM68.28 27.0007L64.56 38.5607H72.04L68.28 27.0007ZM79.2672 24.4407C79.2672 22.8807 80.5072 21.5207 82.0672 21.5207H100.907V26.3607H92.8672V48.7207H87.3072V26.3607H79.2672V24.4407ZM103.486 24.4407C103.486 22.8807 104.726 21.5207 106.286 21.5207H109.126V31.6807H120.286V21.5207H125.926V48.7207H120.286V36.6807H109.126V48.7207H103.486V24.4407ZM128.486 24.4407C128.486 22.8807 129.726 21.5207 131.286 21.5207H134.046V43.7207H147.326V48.7207H128.486V24.4407ZM149.818 48.7207V24.4407C149.818 22.5607 150.738 21.5607 152.618 21.5207H169.498V26.2407H155.298V32.0807H165.898V33.8807C165.938 35.7607 164.978 36.6807 163.018 36.6807H155.298V43.7207H169.498V48.7207H149.818ZM172.236 24.4407C172.236 22.8807 173.476 21.5207 175.036 21.5207H193.876V26.3607H185.836V48.7207H180.276V26.3607H172.236V24.4407ZM202.626 21.5207H207.106L216.866 48.7207H210.986L209.186 43.1607H198.666L196.866 48.7207H190.906L199.986 23.3207C200.386 22.1207 201.266 21.5207 202.626 21.5207ZM203.866 27.0007L200.146 38.5607H207.626L203.866 27.0007Z" fill="white"/>
</svg>
